<svg width="1161" height="582" xmlns="http://www.w3.org/2000/svg" xmlns:xlink="http://www.w3.org/1999/xlink" overflow="hidden"><defs><clipPath id="clip0"><path d="M60 87 1221 87 1221 669 60 669Z" fill-rule="evenodd" clip-rule="evenodd"/></clipPath></defs><g clip-path="url(#clip0)" transform="translate(-60 -87)"><path d="M258.5 325.868 320.86 325.868 320.86 320.3" stroke="#CD0000" stroke-miterlimit="8" fill="none" fill-rule="evenodd"/><path d="M899.5 497.5 908.409 497.5 908.409 554.96 917.317 554.96" stroke="#CD0000" stroke-miterlimit="8" fill="none" fill-rule="evenodd"/><path d="M899.5 497.5 908.409 497.5 908.409 516.653 917.317 516.653" stroke="#CD0000" stroke-miterlimit="8" fill="none" fill-rule="evenodd"/><path d="M899.5 497.653 908.409 497.653 908.409 478.5 917.317 478.5" stroke="#CD0000" stroke-miterlimit="8" fill="none" fill-rule="evenodd"/><path d="M1006.5 440.5 1015.41 440.5 1015.41 574.574 1024.32 574.574" stroke="#CD0000" stroke-miterlimit="8" fill="none" fill-rule="evenodd"/><path d="M1006.5 440.5 1015.41 440.5 1015.41 536.267 1024.32 536.267" stroke="#CD0000" stroke-miterlimit="8" fill="none" fill-rule="evenodd"/><path d="M1006.5 440.5 1015.41 440.5 1015.41 497.96 1024.32 497.96" stroke="#CD0000" stroke-miterlimit="8" fill="none" fill-rule="evenodd"/><path d="M1113.5 459.3 1131.32 459.3" stroke="#CD0000" stroke-miterlimit="8" fill="none" fill-rule="evenodd"/><path d="M1006.5 440.5 1015.41 440.5 1015.41 459.653 1024.32 459.653" stroke="#CD0000" stroke-miterlimit="8" fill="none" fill-rule="evenodd"/><path d="M1006.5 440.653 1015.41 440.653 1015.41 421.5 1024.32 421.5" stroke="#CD0000" stroke-miterlimit="8" fill="none" fill-rule="evenodd"/><path d="M1006.5 439.96 1015.41 439.96 1015.41 382.5 1024.32 382.5" stroke="#CD0000" stroke-miterlimit="8" fill="none" fill-rule="evenodd"/><path d="M1006.5 440.267 1015.41 440.267 1015.41 344.5 1024.32 344.5" stroke="#CD0000" stroke-miterlimit="8" fill="none" fill-rule="evenodd"/><path d="M1006.5 440.574 1015.41 440.574 1015.41 306.5 1024.32 306.5" stroke="#CD0000" stroke-miterlimit="8" fill="none" fill-rule="evenodd"/><path d="M899.5 497.96 908.409 497.96 908.409 440.5 917.317 440.5" stroke="#CD0000" stroke-miterlimit="8" fill="none" fill-rule="evenodd"/><path d="M792.5 497.3 810.317 497.3" stroke="#CD0000" stroke-miterlimit="8" fill="none" fill-rule="evenodd"/><path d="M685.5 497.3 703.317 497.3" stroke="#CD0000" stroke-miterlimit="8" fill="none" fill-rule="evenodd"/><path d="M578.5 497.3 596.317 497.3" stroke="#CD0000" stroke-miterlimit="8" fill="none" fill-rule="evenodd"/><path d="M472.5 431.5 481.409 431.5 481.409 498.086 490.317 498.086" stroke="#CD0000" stroke-miterlimit="8" fill="none" fill-rule="evenodd"/><path d="M472.5 431.5 481.409 431.5 481.409 459.779 490.317 459.779" stroke="#CD0000" stroke-miterlimit="8" fill="none" fill-rule="evenodd"/><path d="M472.5 431.653 481.409 431.653 481.409 412.5 490.317 412.5" stroke="#CD0000" stroke-miterlimit="8" fill="none" fill-rule="evenodd"/><path d="M792.5 431.5 801.409 431.5 801.409 450.653 810.317 450.653" stroke="#CD0000" stroke-miterlimit="8" fill="none" fill-rule="evenodd"/><path d="M792.5 431.653 801.409 431.653 801.409 412.5 810.317 412.5" stroke="#CD0000" stroke-miterlimit="8" fill="none" fill-rule="evenodd"/><path d="M685.5 431.3 703.317 431.3" stroke="#CD0000" stroke-miterlimit="8" fill="none" fill-rule="evenodd"/><path d="M578.5 364.5 587.409 364.5 587.409 431.537 596.317 431.537" stroke="#CD0000" stroke-miterlimit="8" fill="none" fill-rule="evenodd"/><path d="M685.5 374.5 694.409 374.5 694.409 393.653 703.317 393.653" stroke="#CD0000" stroke-miterlimit="8" fill="none" fill-rule="evenodd"/><path d="M685.5 373.653 694.409 373.653 694.409 354.5 703.317 354.5" stroke="#CD0000" stroke-miterlimit="8" fill="none" fill-rule="evenodd"/><path d="M578.5 364.3 587.409 364.3 587.409 373.877 596.317 373.877" stroke="#CD0000" stroke-miterlimit="8" fill="none" fill-rule="evenodd"/><path d="M685.5 297.5 694.409 297.5 694.409 316.653 703.317 316.653" stroke="#CD0000" stroke-miterlimit="8" fill="none" fill-rule="evenodd"/><path d="M685.5 297.653 694.409 297.653 694.409 278.5 703.317 278.5" stroke="#CD0000" stroke-miterlimit="8" fill="none" fill-rule="evenodd"/><path d="M578.5 364.537 587.409 364.537 587.409 297.5 596.317 297.5" stroke="#CD0000" stroke-miterlimit="8" fill="none" fill-rule="evenodd"/><path d="M472.5 431.086 481.409 431.086 481.409 364.5 490.317 364.5" stroke="#CD0000" stroke-miterlimit="8" fill="none" fill-rule="evenodd"/><path d="M258.5 326.5 374.312 326.5 374.312 431.619 383.22 431.619" stroke="#CD0000" stroke-miterlimit="8" fill="none" fill-rule="evenodd"/><path d="M471.5 196.868 533.86 196.868 533.86 191.3" stroke="#CD0000" stroke-miterlimit="8" fill="none" fill-rule="evenodd"/><path d="M471.5 196.5 587.312 196.5 587.312 234.807 596.22 234.807" stroke="#CD0000" stroke-miterlimit="8" fill="none" fill-rule="evenodd"/><path d="M471.5 197.3 596.22 197.3" stroke="#CD0000" stroke-miterlimit="8" fill="none" fill-rule="evenodd"/><path d="M471.5 196.807 587.312 196.807 587.312 158.5 596.22 158.5" stroke="#CD0000" stroke-miterlimit="8" fill="none" fill-rule="evenodd"/><path d="M258.5 325.709 374.016 325.709 374.016 196.5 382.925 196.5" stroke="#CD0000" stroke-miterlimit="8" fill="none" fill-rule="evenodd"/><path d="M151.5 326.3 169.317 326.3" stroke="#B40000" stroke-miterlimit="8" fill="none" fill-rule="evenodd"/><rect x="62.5001" y="312.5" width="89" height="27" stroke="#FFFFFF" stroke-miterlimit="8" fill="#7030A0"/><text fill="#FFFFFF" font-family="Arial,Arial_MSFontService,sans-serif" font-weight="400" font-size="11" transform="translate(85.8244 329)">SD Card</text><rect x="169.5" y="312.5" width="89" height="27" stroke="#FFFFFF" stroke-miterlimit="8" fill="#E20000"/><text fill="#FFFFFF" font-family="Arial,Arial_MSFontService,sans-serif" font-weight="400" font-size="11" transform="translate(203.104 324)">Vitis<tspan x="-14.8333" y="11">Packaging</tspan></text><rect x="382.5" y="183.5" width="89" height="27" stroke="#FFFFFF" stroke-miterlimit="8" fill="#00B2BA"/><text fill="#FFFFFF" font-family="Arial,Arial_MSFontService,sans-serif" font-weight="400" font-size="11" transform="translate(405.935 200)">PS Apps</text><rect x="596.5" y="144.5" width="89" height="28" stroke="#FFFFFF" stroke-miterlimit="8" fill="#00B2BA"/><text fill="#FFFFFF" font-family="Arial,Arial_MSFontService,sans-serif" font-weight="400" font-size="11" transform="translate(605.508 156)">User Managed <tspan x="22.8333" y="11">Apps</tspan></text><rect x="596.5" y="183.5" width="89" height="27" stroke="#FFFFFF" stroke-miterlimit="8" fill="#00B2BA"/><text fill="#FFFFFF" font-family="Arial,Arial_MSFontService,sans-serif" font-weight="400" font-size="11" transform="translate(616.191 200)">XRT Apps</text><rect x="596.5" y="221.5" width="89" height="27" stroke="#FFFFFF" stroke-miterlimit="8" fill="#00B2BA"/><text fill="#FFFFFF" font-family="Arial,Arial_MSFontService,sans-serif" font-weight="400" font-size="11" transform="translate(619.747 238)">RT Apps</text><rect x="489.5" y="164.5" width="89" height="27" stroke="#FFFFFF" stroke-miterlimit="8" fill="#00B2BA"/><text fill="#FFFFFF" font-family="Arial,Arial_MSFontService,sans-serif" font-weight="400" font-size="11" transform="translate(490.308 181)">A72 / R5 Domains</text><rect x="382.5" y="417.5" width="90" height="27" stroke="#FFFFFF" stroke-miterlimit="8" fill="#E20000"/><text fill="#FFFFFF" font-family="Arial,Arial_MSFontService,sans-serif" font-weight="400" font-size="11" transform="translate(416.91 429)">Vitis<tspan x="-4.45334" y="11">Linker</tspan></text><rect x="489.5" y="350.5" width="89" height="28" stroke="#FFFFFF" stroke-miterlimit="8" fill="#E20000"/><text fill="#FFFFFF" font-family="Arial,Arial_MSFontService,sans-serif" font-weight="400" font-size="11" transform="translate(528.847 368)">IP</text><rect x="596.5" y="283.5" width="89" height="28" stroke="#FFFFFF" stroke-miterlimit="8" fill="#0070C0"/><text fill="#FFFFFF" font-family="Arial,Arial_MSFontService,sans-serif" font-weight="400" font-size="11" transform="translate(614.11 301)">AIE Design</text><rect x="703.5" y="264.5" width="89" height="27" stroke="#FFFFFF" stroke-miterlimit="8" fill="#0070C0"/><text fill="#FFFFFF" font-family="Arial,Arial_MSFontService,sans-serif" font-weight="400" font-size="11" transform="translate(720.12 281)">AIE Graphs</text><rect x="703.5" y="303.5" width="89" height="27" stroke="#FFFFFF" stroke-miterlimit="8" fill="#0070C0"/><text fill="#FFFFFF" font-family="Arial,Arial_MSFontService,sans-serif" font-weight="400" font-size="11" transform="translate(719.53 320)">AIE Kernels</text><rect x="596.5" y="360.5" width="89" height="27" stroke="#FFFFFF" stroke-miterlimit="8" fill="#92D050"/><text fill="#0C0C0C" font-family="Arial,Arial_MSFontService,sans-serif" font-weight="400" font-size="11" transform="translate(610.85 377)">HLS Kernels</text><rect x="703.5" y="341.5" width="89" height="27" stroke="#FFFFFF" stroke-miterlimit="8" fill="#92D050"/><text fill="#0C0C0C" font-family="Arial,Arial_MSFontService,sans-serif" font-weight="400" font-size="11" transform="translate(718.936 358)">HLS Source</text><rect x="703.5" y="379.5" width="89" height="27" stroke="#FFFFFF" stroke-miterlimit="8" fill="#92D050"/><text fill="#0C0C0C" font-family="Arial,Arial_MSFontService,sans-serif" font-weight="400" font-size="11" transform="translate(712.426 396)">HLS Directives</text><rect x="596.5" y="418.5" width="89" height="27" stroke="#FFFFFF" stroke-miterlimit="8" fill="#FFFF00"/><text fill="#0C0C0C" font-family="Arial,Arial_MSFontService,sans-serif" font-weight="400" font-size="11" transform="translate(611.15 435)">RTL Kernels</text><rect x="703.5" y="418.5" width="89" height="27" stroke="#FFFFFF" stroke-miterlimit="8" fill="#FFFF00"/><text fill="#0C0C0C" font-family="Arial,Arial_MSFontService,sans-serif" font-weight="400" font-size="11" transform="translate(715.38 435)">RTL Package</text><rect x="810.5" y="398.5" width="89" height="28" stroke="#FFFFFF" stroke-miterlimit="8" fill="#FFFF00"/><text fill="#0C0C0C" font-family="Arial,Arial_MSFontService,sans-serif" font-weight="400" font-size="11" transform="translate(826.14 415)">RTL Source</text><rect x="810.5" y="437.5" width="89" height="27" stroke="#FFFFFF" stroke-miterlimit="8" fill="#FFFF00"/><text fill="#0C0C0C" font-family="Arial,Arial_MSFontService,sans-serif" font-weight="400" font-size="11" transform="translate(827.62 454)">Constraints</text><rect x="489.5" y="389.5" width="89" height="45" stroke="#FFFFFF" stroke-miterlimit="8" fill="#E20000"/><text fill="#FFFFFF" font-family="Arial,Arial_MSFontService,sans-serif" font-weight="400" font-size="11" transform="translate(507.214 404)">TCL Hooks<tspan x="-8.90665" y="11">Pre/Post Synth</tspan><tspan x="0.593353" y="22">Timing etc.</tspan></text><rect x="489.5" y="445.5" width="89" height="28" stroke="#FFFFFF" stroke-miterlimit="8" fill="#E20000"/><text fill="#FFFFFF" font-family="Arial,Arial_MSFontService,sans-serif" font-weight="400" font-size="11" transform="translate(499.204 462)">System Config</text><rect x="489.5" y="484.5" width="89" height="27" stroke="#FFFFFF" stroke-miterlimit="8" fill="#E20000"/><text fill="#FFFFFF" font-family="Arial,Arial_MSFontService,sans-serif" font-weight="400" font-size="11" transform="translate(502.47 501)">Vitis Platform</text><rect x="596.5" y="484.5" width="89" height="27" stroke="#FFFFFF" stroke-miterlimit="8" fill="#E20000"/><text fill="#FFFFFF" font-family="Arial,Arial_MSFontService,sans-serif" font-weight="400" font-size="11" transform="translate(610.857 501)">SW Platform</text><rect x="703.5" y="484.5" width="89" height="27" stroke="#FFFFFF" stroke-miterlimit="8" fill="#5F5F5F"/><text fill="#FFFFFF" font-family="Arial,Arial_MSFontService,sans-serif" font-weight="400" font-size="11" transform="translate(725.753 501)">Petalinux</text><rect x="810.5" y="484.5" width="89" height="27" stroke="#FFFFFF" stroke-miterlimit="8" fill="#FFC000"/><text fill="#FFFFFF" font-family="Arial,Arial_MSFontService,sans-serif" font-weight="400" font-size="11" transform="translate(838.29 495)">Vivado<tspan x="-13.92" y="11">HW Platform</tspan></text><rect x="917.5" y="426.5" width="89" height="27" stroke="#FFFFFF" stroke-miterlimit="8" fill="#FFC000"/><text fill="#FFFFFF" font-family="Arial,Arial_MSFontService,sans-serif" font-weight="400" font-size="11" transform="translate(930.376 443)">Block Design</text><rect x="1024.5" y="292.5" width="89" height="27" stroke="#FFFFFF" stroke-miterlimit="8" fill="#FFC000"/><text fill="#FFFFFF" font-family="Arial,Arial_MSFontService,sans-serif" font-weight="400" font-size="11" transform="translate(1036.69 309)">RTL Modules</text><rect x="1024.5" y="330.5" width="89" height="28" stroke="#FFFFFF" stroke-miterlimit="8" fill="#FFC000"/><text fill="#FFFFFF" font-family="Arial,Arial_MSFontService,sans-serif" font-weight="400" font-size="11" transform="translate(1055.07 347)">Clock</text><rect x="1024.5" y="369.5" width="89" height="27" stroke="#FFFFFF" stroke-miterlimit="8" fill="#FFC000"/><text fill="#FFFFFF" font-family="Arial,Arial_MSFontService,sans-serif" font-weight="400" font-size="11" transform="translate(1055.96 386)">CIPS</text><rect x="1024.5" y="407.5" width="89" height="27" stroke="#FFFFFF" stroke-miterlimit="8" fill="#FFC000"/><text fill="#FFFFFF" font-family="Arial,Arial_MSFontService,sans-serif" font-weight="400" font-size="11" transform="translate(1054.47 424)">Reset</text><rect x="1024.5" y="445.5" width="89" height="28" stroke="#FFFFFF" stroke-miterlimit="8" fill="#FFC000"/><text fill="#FFFFFF" font-family="Arial,Arial_MSFontService,sans-serif" font-weight="400" font-size="11" transform="translate(1057.74 462)">NoC</text><rect x="1131.5" y="445.5" width="89" height="28" stroke="#FFFFFF" stroke-miterlimit="8" fill="#FFC000"/><text fill="#FFFFFF" font-family="Arial,Arial_MSFontService,sans-serif" font-weight="400" font-size="11" transform="translate(1149.83 462)">DDR MEM</text><rect x="1024.5" y="484.5" width="89" height="27" stroke="#FFFFFF" stroke-miterlimit="8" fill="#FFC000"/><text fill="#FFFFFF" font-family="Arial,Arial_MSFontService,sans-serif" font-weight="400" font-size="11" transform="translate(1030.16 501)">AIE <tspan x="20.16" y="0">Placeholder</tspan></text><rect x="1024.5" y="522.5" width="89" height="27" stroke="#FFFFFF" stroke-miterlimit="8" fill="#FFC000"/><text fill="#FFFFFF" font-family="Arial,Arial_MSFontService,sans-serif" font-weight="400" font-size="11" transform="translate(1046.47 539)">AXI SMC</text><rect x="1024.5" y="560.5" width="89" height="27" stroke="#FFFFFF" stroke-miterlimit="8" fill="#FFC000"/><text fill="#FFFFFF" font-family="Arial,Arial_MSFontService,sans-serif" font-weight="400" font-size="11" transform="translate(1048.84 577)">AXI IRQ</text><rect x="917.5" y="465.5" width="89" height="27" stroke="#FFFFFF" stroke-miterlimit="8" fill="#FFC000"/><text fill="#FFFFFF" font-family="Arial,Arial_MSFontService,sans-serif" font-weight="400" font-size="11" transform="translate(935.709 482)">TCL hooks</text><rect x="917.5" y="503.5" width="89" height="27" stroke="#FFFFFF" stroke-miterlimit="8" fill="#FFC000"/><text fill="#FFFFFF" font-family="Arial,Arial_MSFontService,sans-serif" font-weight="400" font-size="11" transform="translate(934.523 520)">Constraints</text><rect x="917.5" y="541.5" width="89" height="27" stroke="#FFFFFF" stroke-miterlimit="8" fill="#FFC000"/><text fill="#FFFFFF" font-family="Arial,Arial_MSFontService,sans-serif" font-weight="400" font-size="11" transform="translate(924.449 558)">PFM Properties</text><rect x="276.5" y="271.5" width="89" height="49" stroke="#FFFFFF" stroke-miterlimit="8" fill="#66FFFF"/><text fill="#0C0C0C" font-family="Arial,Arial_MSFontService,sans-serif" font-weight="400" font-size="11" transform="translate(291.931 288)">System HW <tspan x="4.43332" y="11">Emulation</tspan><tspan x="11.26" y="22">Co</tspan><tspan x="24.8933" y="22">-</tspan><tspan x="28.4467" y="22">sim</tspan></text></g></svg>