<svg width="2223" height="879" xmlns="http://www.w3.org/2000/svg" xmlns:xlink="http://www.w3.org/1999/xlink" xml:space="preserve" overflow="hidden"><defs><clipPath id="clip0"><rect x="1924" y="393" width="2223" height="879"/></clipPath></defs><g clip-path="url(#clip0)" transform="translate(-1924 -393)"><rect x="1924" y="393" width="2223" height="879" fill="#FFFFFF"/><rect x="2026" y="498" width="1204" height="674" fill="#D1D3D7"/><rect x="2781.5" y="659.5" width="318" height="352" stroke="#055C99" stroke-width="4.58333" stroke-miterlimit="8" fill="#FFFFFF"/><rect x="3417" y="659" width="318" height="352" fill="#BBE2FD"/><rect x="3472" y="714" width="318" height="352" fill="#77C4FB"/><text fill="#055C99" font-family="Arial,Arial_MSFontService,sans-serif" font-weight="400" font-size="83" transform="matrix(1 0 0 1 2881.97 869)">RP<tspan font-size="83" x="988.669" y="-143">RM1</tspan><tspan font-size="83" x="988.669" y="-44">RM2</tspan><tspan fill="#0C0C0C" font-size="64" x="-798.479" y="257">Static</tspan></text><path d="M3.89539e-06-3.4375 295.554-3.43717 295.554 3.43783-3.89539e-06 3.4375ZM290.971-13.7497 318.471 0.000360892 290.971 13.7503Z" fill="#055C99" transform="matrix(-1 0 0 1 3417.97 835.5)"/><text fill="#0C0C0C" font-family="Arial,Arial_MSFontService,sans-serif" font-weight="400" font-size="64" transform="matrix(1 0 0 1 2815.57 986)">Dynamic</text></g></svg>