<svg width="1175" height="681" xmlns="http://www.w3.org/2000/svg" xmlns:xlink="http://www.w3.org/1999/xlink" overflow="hidden"><defs><clipPath id="clip0"><path d="M85 122 1260 122 1260 803 85 803Z" fill-rule="evenodd" clip-rule="evenodd"/></clipPath></defs><g clip-path="url(#clip0)" transform="translate(-85 -122)"><path d="M285.5 411.938 348.646 411.938 348.646 406.3" stroke="#CD0000" stroke-miterlimit="8" fill="none" fill-rule="evenodd"/><path d="M934.5 579.5 943.521 579.5 943.521 637.685 952.542 637.685" stroke="#CD0000" stroke-miterlimit="8" fill="none" fill-rule="evenodd"/><path d="M934.5 579.5 943.521 579.5 943.521 598.895 952.542 598.895" stroke="#CD0000" stroke-miterlimit="8" fill="none" fill-rule="evenodd"/><path d="M934.5 579.895 943.521 579.895 943.521 560.5 952.542 560.5" stroke="#CD0000" stroke-miterlimit="8" fill="none" fill-rule="evenodd"/><path d="M1042.5 521.5 1051.52 521.5 1051.52 657.264 1060.54 657.264" stroke="#CD0000" stroke-miterlimit="8" fill="none" fill-rule="evenodd"/><path d="M1042.5 521.5 1051.52 521.5 1051.52 618.474 1060.54 618.474" stroke="#CD0000" stroke-miterlimit="8" fill="none" fill-rule="evenodd"/><path d="M1042.5 521.5 1051.52 521.5 1051.52 579.685 1060.54 579.685" stroke="#CD0000" stroke-miterlimit="8" fill="none" fill-rule="evenodd"/><path d="M1151.5 541.3 1169.54 541.3" stroke="#CD0000" stroke-miterlimit="8" fill="none" fill-rule="evenodd"/><path d="M1042.5 521.5 1051.52 521.5 1051.52 540.895 1060.54 540.895" stroke="#CD0000" stroke-miterlimit="8" fill="none" fill-rule="evenodd"/><path d="M1042.5 521.895 1051.52 521.895 1051.52 502.5 1060.54 502.5" stroke="#CD0000" stroke-miterlimit="8" fill="none" fill-rule="evenodd"/><path d="M1042.5 521.685 1051.52 521.685 1051.52 463.5 1060.54 463.5" stroke="#CD0000" stroke-miterlimit="8" fill="none" fill-rule="evenodd"/><path d="M1042.5 521.474 1051.52 521.474 1051.52 424.5 1060.54 424.5" stroke="#CD0000" stroke-miterlimit="8" fill="none" fill-rule="evenodd"/><path d="M1042.5 521.264 1051.52 521.264 1051.52 385.5 1060.54 385.5" stroke="#CD0000" stroke-miterlimit="8" fill="none" fill-rule="evenodd"/><path d="M934.5 579.685 943.521 579.685 943.521 521.5 952.542 521.5" stroke="#CD0000" stroke-miterlimit="8" fill="none" fill-rule="evenodd"/><path d="M826.5 579.3 844.542 579.3" stroke="#CD0000" stroke-miterlimit="8" fill="none" fill-rule="evenodd"/><path d="M718.5 579.3 736.542 579.3" stroke="#CD0000" stroke-miterlimit="8" fill="none" fill-rule="evenodd"/><path d="M609.5 579.3 627.542 579.3" stroke="#CD0000" stroke-miterlimit="8" fill="none" fill-rule="evenodd"/><path d="M501.5 516.5 510.521 516.5 510.521 579.533 519.542 579.533" stroke="#CD0000" stroke-miterlimit="8" fill="none" fill-rule="evenodd"/><path d="M501.5 516.5 510.521 516.5 510.521 531.046 519.542 531.046" stroke="#CD0000" stroke-miterlimit="8" fill="none" fill-rule="evenodd"/><path d="M501.5 516.744 510.521 516.744 510.521 492.5 519.542 492.5" stroke="#CD0000" stroke-miterlimit="8" fill="none" fill-rule="evenodd"/><path d="M826.5 521.5 835.521 521.5 835.521 540.895 844.542 540.895" stroke="#CD0000" stroke-miterlimit="8" fill="none" fill-rule="evenodd"/><path d="M826.5 521.895 835.521 521.895 835.521 502.5 844.542 502.5" stroke="#CD0000" stroke-miterlimit="8" fill="none" fill-rule="evenodd"/><path d="M718.5 521.3 736.542 521.3" stroke="#CD0000" stroke-miterlimit="8" fill="none" fill-rule="evenodd"/><path d="M609.5 453.5 618.521 453.5 618.521 521.382 627.542 521.382" stroke="#CD0000" stroke-miterlimit="8" fill="none" fill-rule="evenodd"/><path d="M718.5 463.5 727.521 463.5 727.521 482.895 736.542 482.895" stroke="#CD0000" stroke-miterlimit="8" fill="none" fill-rule="evenodd"/><path d="M718.5 462.895 727.521 462.895 727.521 443.5 736.542 443.5" stroke="#CD0000" stroke-miterlimit="8" fill="none" fill-rule="evenodd"/><path d="M609.5 453.5 618.521 453.5 618.521 463.197 627.542 463.197" stroke="#CD0000" stroke-miterlimit="8" fill="none" fill-rule="evenodd"/><path d="M718.5 385.5 727.521 385.5 727.521 404.895 736.542 404.895" stroke="#CD0000" stroke-miterlimit="8" fill="none" fill-rule="evenodd"/><path d="M718.5 385.895 727.521 385.895 727.521 366.5 736.542 366.5" stroke="#CD0000" stroke-miterlimit="8" fill="none" fill-rule="evenodd"/><path d="M609.5 453.382 618.521 453.382 618.521 385.5 627.542 385.5" stroke="#CD0000" stroke-miterlimit="8" fill="none" fill-rule="evenodd"/><path d="M501.5 516.533 510.521 516.533 510.521 453.5 519.542 453.5" stroke="#CD0000" stroke-miterlimit="8" fill="none" fill-rule="evenodd"/><path d="M285.5 412.5 402.771 412.5 402.771 516.747 411.792 516.747" stroke="#CD0000" stroke-miterlimit="8" fill="none" fill-rule="evenodd"/><path d="M501.5 307.938 564.646 307.938 564.646 302.3" stroke="#CD0000" stroke-miterlimit="8" fill="none" fill-rule="evenodd"/><path d="M501.5 308.5 618.771 308.5 618.771 347.29 627.792 347.29" stroke="#CD0000" stroke-miterlimit="8" fill="none" fill-rule="evenodd"/><path d="M501.5 308.3 627.792 308.3" stroke="#CD0000" stroke-miterlimit="8" fill="none" fill-rule="evenodd"/><path d="M501.5 308.29 618.771 308.29 618.771 269.5 627.792 269.5" stroke="#CD0000" stroke-miterlimit="8" fill="none" fill-rule="evenodd"/><path d="M285.5 412.747 402.771 412.747 402.771 308.5 411.792 308.5" stroke="#CD0000" stroke-miterlimit="8" fill="none" fill-rule="evenodd"/><path d="M176.5 412.3 194.542 412.3" stroke="#B40000" stroke-miterlimit="8" fill="none" fill-rule="evenodd"/><rect x="86.5001" y="398.5" width="90" height="28" stroke="#FFFFFF" stroke-miterlimit="8" fill="#7030A0"/><text fill="#FFFFFF" font-family="Arial,Arial_MSFontService,sans-serif" font-weight="400" font-size="8" transform="translate(115.911 415)">SD Card</text><rect x="194.5" y="398.5" width="91" height="28" stroke="#FFFFFF" stroke-miterlimit="8" fill="#E20000"/><text fill="#FFFFFF" font-family="Arial,Arial_MSFontService,sans-serif" font-weight="400" font-size="8" transform="translate(231.945 411)">Vitis<tspan x="-11.12" y="8">Packaging</tspan></text><rect x="411.5" y="294.5" width="90" height="27" stroke="#FFFFFF" stroke-miterlimit="8" fill="#00B2BA"/><text fill="#FFFFFF" font-family="Arial,Arial_MSFontService,sans-serif" font-weight="400" font-size="8" transform="translate(440.442 311)">PS Apps</text><rect x="627.5" y="255.5" width="91" height="28" stroke="#FFFFFF" stroke-miterlimit="8" fill="#00B2BA"/><text fill="#FFFFFF" font-family="Arial,Arial_MSFontService,sans-serif" font-weight="400" font-size="8" transform="translate(636.046 272)">User Managed Apps</text><rect x="627.5" y="294.5" width="91" height="27" stroke="#FFFFFF" stroke-miterlimit="8" fill="#00B2BA"/><text fill="#FFFFFF" font-family="Arial,Arial_MSFontService,sans-serif" font-weight="400" font-size="8" transform="translate(654.276 311)">XRT Apps</text><rect x="627.5" y="333.5" width="91" height="27" stroke="#FFFFFF" stroke-miterlimit="8" fill="#00B2BA"/><text fill="#FFFFFF" font-family="Arial,Arial_MSFontService,sans-serif" font-weight="400" font-size="8" transform="translate(656.943 349)">RT Apps</text><rect x="519.5" y="275.5" width="90" height="27" stroke="#FFFFFF" stroke-miterlimit="8" fill="#00B2BA"/><text fill="#FFFFFF" font-family="Arial,Arial_MSFontService,sans-serif" font-weight="400" font-size="8" transform="translate(531.799 291)">A72 / R5 Domains</text><rect x="411.5" y="502.5" width="90" height="28" stroke="#FFFFFF" stroke-miterlimit="8" fill="#E20000"/><text fill="#FFFFFF" font-family="Arial,Arial_MSFontService,sans-serif" font-weight="400" font-size="8" transform="translate(448.445 515)">Vitis<tspan x="-3.34" y="8">Linker</tspan></text><rect x="519.5" y="439.5" width="90" height="28" stroke="#FFFFFF" stroke-miterlimit="8" fill="#E20000"/><text fill="#FFFFFF" font-family="Arial,Arial_MSFontService,sans-serif" font-weight="400" font-size="8" transform="translate(560.473 456)">IP</text><rect x="627.5" y="371.5" width="91" height="28" stroke="#FFFFFF" stroke-miterlimit="8" fill="#0070C0"/><text fill="#FFFFFF" font-family="Arial,Arial_MSFontService,sans-serif" font-weight="400" font-size="8" transform="translate(652.496 388)">AIE Design</text><rect x="736.5" y="352.5" width="90" height="28" stroke="#FFFFFF" stroke-miterlimit="8" fill="#0070C0"/><text fill="#FFFFFF" font-family="Arial,Arial_MSFontService,sans-serif" font-weight="400" font-size="8" transform="translate(760.084 369)">AIE Graphs</text><rect x="736.5" y="391.5" width="90" height="27" stroke="#FFFFFF" stroke-miterlimit="8" fill="#0070C0"/><text fill="#FFFFFF" font-family="Arial,Arial_MSFontService,sans-serif" font-weight="400" font-size="8" transform="translate(759.637 408)">AIE Kernels</text><rect x="627.5" y="449.5" width="91" height="28" stroke="#FFFFFF" stroke-miterlimit="8" fill="#92D050"/><text fill="#0C0C0C" font-family="Arial,Arial_MSFontService,sans-serif" font-weight="400" font-size="8" transform="translate(650.05 466)">HLS Kernels</text><rect x="736.5" y="430.5" width="90" height="27" stroke="#FFFFFF" stroke-miterlimit="8" fill="#92D050"/><text fill="#0C0C0C" font-family="Arial,Arial_MSFontService,sans-serif" font-weight="400" font-size="8" transform="translate(759.19 446)">HLS Source</text><rect x="736.5" y="468.5" width="90" height="28" stroke="#FFFFFF" stroke-miterlimit="8" fill="#92D050"/><text fill="#0C0C0C" font-family="Arial,Arial_MSFontService,sans-serif" font-weight="400" font-size="8" transform="translate(754.3 485)">HLS Directives</text><rect x="627.5" y="507.5" width="91" height="28" stroke="#FFFFFF" stroke-miterlimit="8" fill="#FFFF00"/><text fill="#0C0C0C" font-family="Arial,Arial_MSFontService,sans-serif" font-weight="400" font-size="8" transform="translate(650.273 524)">RTL Kernels</text><rect x="736.5" y="507.5" width="90" height="28" stroke="#FFFFFF" stroke-miterlimit="8" fill="#FFFF00"/><text fill="#0C0C0C" font-family="Arial,Arial_MSFontService,sans-serif" font-weight="400" font-size="8" transform="translate(756.524 524)">RTL Package</text><rect x="844.5" y="488.5" width="90" height="27" stroke="#FFFFFF" stroke-miterlimit="8" fill="#FFFF00"/><text fill="#0C0C0C" font-family="Arial,Arial_MSFontService,sans-serif" font-weight="400" font-size="8" transform="translate(867.664 504)">RTL Source</text><rect x="844.5" y="527.5" width="90" height="27" stroke="#FFFFFF" stroke-miterlimit="8" fill="#FFFF00"/><text fill="#0C0C0C" font-family="Arial,Arial_MSFontService,sans-serif" font-weight="400" font-size="8" transform="translate(868.774 543)">Constraints</text><rect x="519.5" y="478.5" width="90" height="28" stroke="#FFFFFF" stroke-miterlimit="8" fill="#E20000"/><text fill="#FFFFFF" font-family="Arial,Arial_MSFontService,sans-serif" font-weight="400" font-size="8" transform="translate(544.249 487)">TCL Hooks<tspan x="-6.66663" y="8">Pre/Post Synth</tspan><tspan x="0.446716" y="16">Timing etc.</tspan></text><rect x="519.5" y="517.5" width="90" height="27" stroke="#FFFFFF" stroke-miterlimit="8" fill="#E20000"/><text fill="#FFFFFF" font-family="Arial,Arial_MSFontService,sans-serif" font-weight="400" font-size="8" transform="translate(538.246 534)">System Config</text><rect x="519.5" y="565.5" width="90" height="28" stroke="#FFFFFF" stroke-miterlimit="8" fill="#E20000"/><text fill="#FFFFFF" font-family="Arial,Arial_MSFontService,sans-serif" font-weight="400" font-size="8" transform="translate(540.693 582)">Vitis Platform</text><rect x="627.5" y="565.5" width="91" height="28" stroke="#FFFFFF" stroke-miterlimit="8" fill="#E20000"/><text fill="#FFFFFF" font-family="Arial,Arial_MSFontService,sans-serif" font-weight="400" font-size="8" transform="translate(650.056 582)">SW Platform</text><rect x="736.5" y="565.5" width="90" height="28" stroke="#FFFFFF" stroke-miterlimit="8" fill="#5F5F5F"/><text fill="#FFFFFF" font-family="Arial,Arial_MSFontService,sans-serif" font-weight="400" font-size="8" transform="translate(764.3 582)">Petalinux</text><rect x="844.5" y="565.5" width="90" height="28" stroke="#FFFFFF" stroke-miterlimit="8" fill="#FFC000"/><text fill="#FFFFFF" font-family="Arial,Arial_MSFontService,sans-serif" font-weight="400" font-size="8" transform="translate(876.774 578)">Vivado<tspan x="-10.44" y="8">HW Platform</tspan></text><rect x="952.5" y="507.5" width="89.9999" height="28" stroke="#FFFFFF" stroke-miterlimit="8" fill="#FFC000"/><text fill="#FFFFFF" font-family="Arial,Arial_MSFontService,sans-serif" font-weight="400" font-size="8" transform="translate(973.911 524)">Block Design</text><rect x="1060.5" y="371.5" width="91" height="28" stroke="#FFFFFF" stroke-miterlimit="8" fill="#FFC000"/><text fill="#FFFFFF" font-family="Arial,Arial_MSFontService,sans-serif" font-weight="400" font-size="8" transform="translate(1081.72 388)">RTL Modules</text><rect x="1060.5" y="410.5" width="91" height="28" stroke="#FFFFFF" stroke-miterlimit="8" fill="#FFC000"/><text fill="#FFFFFF" font-family="Arial,Arial_MSFontService,sans-serif" font-weight="400" font-size="8" transform="translate(1095.5 427)">Clock</text><rect x="1060.5" y="449.5" width="91" height="28" stroke="#FFFFFF" stroke-miterlimit="8" fill="#FFC000"/><text fill="#FFFFFF" font-family="Arial,Arial_MSFontService,sans-serif" font-weight="400" font-size="8" transform="translate(1096.17 466)">CIPS</text><rect x="1060.5" y="488.5" width="91" height="27" stroke="#FFFFFF" stroke-miterlimit="8" fill="#FFC000"/><text fill="#FFFFFF" font-family="Arial,Arial_MSFontService,sans-serif" font-weight="400" font-size="8" transform="translate(1095.06 504)">Reset</text><rect x="1060.5" y="527.5" width="91" height="27" stroke="#FFFFFF" stroke-miterlimit="8" fill="#FFC000"/><text fill="#FFFFFF" font-family="Arial,Arial_MSFontService,sans-serif" font-weight="400" font-size="8" transform="translate(1097.5 543)">NoC</text><rect x="1169.5" y="527.5" width="90" height="27" stroke="#FFFFFF" stroke-miterlimit="8" fill="#FFC000"/><text fill="#FFFFFF" font-family="Arial,Arial_MSFontService,sans-serif" font-weight="400" font-size="8" transform="translate(1194.64 543)">DDR MEM</text><rect x="1060.5" y="565.5" width="91" height="28" stroke="#FFFFFF" stroke-miterlimit="8" fill="#FFC000"/><text fill="#FFFFFF" font-family="Arial,Arial_MSFontService,sans-serif" font-weight="400" font-size="8" transform="translate(1082.61 582)">AIE Wrapper</text><rect x="1060.5" y="604.5" width="91" height="28" stroke="#FFFFFF" stroke-miterlimit="8" fill="#FFC000"/><text fill="#FFFFFF" font-family="Arial,Arial_MSFontService,sans-serif" font-weight="400" font-size="8" transform="translate(1089.06 621)">AXI SMC</text><rect x="1060.5" y="643.5" width="91" height="28" stroke="#FFFFFF" stroke-miterlimit="8" fill="#FFC000"/><text fill="#FFFFFF" font-family="Arial,Arial_MSFontService,sans-serif" font-weight="400" font-size="8" transform="translate(1090.84 660)">AXI IRQ</text><rect x="952.5" y="546.5" width="89.9999" height="28" stroke="#FFFFFF" stroke-miterlimit="8" fill="#FFC000"/><text fill="#FFFFFF" font-family="Arial,Arial_MSFontService,sans-serif" font-weight="400" font-size="8" transform="translate(977.915 563)">TCL hooks</text><rect x="952.5" y="585.5" width="89.9999" height="27" stroke="#FFFFFF" stroke-miterlimit="8" fill="#FFC000"/><text fill="#FFFFFF" font-family="Arial,Arial_MSFontService,sans-serif" font-weight="400" font-size="8" transform="translate(977.025 601)">Constraints</text><rect x="952.5" y="624.5" width="89.9999" height="27" stroke="#FFFFFF" stroke-miterlimit="8" fill="#FFC000"/><text fill="#FFFFFF" font-family="Arial,Arial_MSFontService,sans-serif" font-weight="400" font-size="8" transform="translate(969.471 640)">PFM Properties</text><rect x="303.5" y="379.5" width="90" height="27" stroke="#FFFFFF" stroke-miterlimit="8" fill="#66FFFF"/><text fill="#0C0C0C" font-family="Arial,Arial_MSFontService,sans-serif" font-weight="400" font-size="8" transform="translate(307.745 391)">System HW Emulation<tspan x="27.3333" y="8">Co</tspan><tspan x="37.56" y="8">-</tspan><tspan x="40.2267" y="8">sim</tspan></text></g></svg>