<svg width="4295" height="1069" xmlns="http://www.w3.org/2000/svg" xmlns:xlink="http://www.w3.org/1999/xlink" xml:space="preserve" overflow="hidden"><defs><clipPath id="clip0"><rect x="74" y="394" width="4295" height="1069"/></clipPath><linearGradient x1="2989.5" y1="531" x2="2989.5" y2="1390" gradientUnits="userSpaceOnUse" spreadMethod="reflect" id="fill1"><stop offset="0" stop-color="#9CADCD"/><stop offset="0.5" stop-color="#8EA1C2"/><stop offset="1" stop-color="#7992BC"/></linearGradient></defs><g clip-path="url(#clip0)" transform="translate(-74 -394)"><rect x="73.9999" y="394" width="4295" height="1069" fill="#FFFFFF"/><rect x="209.5" y="526.5" width="550" height="864" stroke="#FFFFFF" stroke-width="6.875" stroke-miterlimit="8" fill="#055C99"/><text fill="#FFFFFF" font-family="Arial,Arial_MSFontService,sans-serif" font-weight="400" font-size="83" transform="matrix(1 0 0 1 387.75 988)">CIPS</text><rect x="1023" y="612" width="695" height="210" fill="#282D3F"/><text fill="#FFFFFF" font-family="Arial,Arial_MSFontService,sans-serif" font-weight="400" font-size="83" transform="matrix(1 0 0 1 1200.7 747)">PS_NOC</text><rect x="2200" y="531" width="1579" height="859" stroke="#055C99" stroke-width="2.29167" stroke-miterlimit="8" fill="url(#fill1)"/><text fill="#0C0C0C" font-family="Arial,Arial_MSFontService,sans-serif" font-weight="400" font-size="83" transform="matrix(1 0 0 1 2767.92 1286)">Vitis Region</text><path d="M759.5 714.062 1000.58 714.063 1000.58 720.938 759.5 720.937ZM996 703.75 1023.5 717.5 996 731.25Z" fill="#282D3F"/><path d="M1718.5 714.062 2352.44 714.063 2352.44 720.938 1718.5 720.937ZM2347.86 703.75 2375.36 717.5 2347.86 731.25Z" fill="#282D3F"/><rect x="2374" y="673" width="486" height="210" fill="#282D3F"/><text fill="#FFFFFF" font-family="Arial,Arial_MSFontService,sans-serif" font-weight="400" font-size="83" transform="matrix(1 0 0 1 2436.17 808)">AIE_NOC</text><rect x="2951" y="673" width="611" height="210" fill="#282D3F"/><text fill="#FFFFFF" font-family="Arial,Arial_MSFontService,sans-serif" font-weight="400" font-size="83" transform="matrix(1 0 0 1 3078.04 808)">AI Engine</text><path d="M4.08337e-05-3.4375 68.2264-3.43669 68.2263 3.43831-4.08337e-05 3.4375ZM63.6432-13.7492 91.143 0.00108268 63.6428 13.7508Z" fill="#282D3F" transform="matrix(1 0 0 -1 2860.5 778.501)"/><path d="M-4.09795e-06 3.4375-55.7886 3.4375-52.3511 0-52.3511 187.544-55.7886 184.107 1270.49 184.107 1267.06 187.544 1267.06 0.00144357 1270.49 3.43894 1210.92 3.43894 1210.92-3.43606 1273.93-3.43606 1273.93 190.982-59.2261 190.982-59.2261-3.4375 4.09795e-06-3.4375ZM1215.5 13.7514 1188 0.00144357 1215.5-13.7486Z" fill="#0C0C0C" transform="matrix(-1 1.22465e-16 1.22465e-16 1 3562.5 778.5)"/><text fill="#0C0C0C" font-family="Arial,Arial_MSFontService,sans-serif" font-weight="400" font-size="55" transform="matrix(1 0 0 1 1802.47 675)">AXI for Control<tspan font-size="55" x="496.506" y="354">Cloc</tspan><tspan font-size="55" x="605.934" y="354">k</tspan></text></g></svg>