<svg width="4295" height="1108" xmlns="http://www.w3.org/2000/svg" xmlns:xlink="http://www.w3.org/1999/xlink" xml:space="preserve" overflow="hidden"><defs><clipPath id="clip0"><rect x="74" y="355" width="4295" height="1108"/></clipPath><linearGradient x1="3461.5" y1="531" x2="3461.5" y2="1267" gradientUnits="userSpaceOnUse" spreadMethod="reflect" id="fill1"><stop offset="0" stop-color="#9CADCD"/><stop offset="0.5" stop-color="#8EA1C2"/><stop offset="1" stop-color="#7992BC"/></linearGradient></defs><g clip-path="url(#clip0)" transform="translate(-74 -355)"><rect x="73.9999" y="355" width="4295" height="1108" fill="#FFFFFF"/><rect x="209.5" y="531.5" width="550" height="731" stroke="#FFFFFF" stroke-width="6.875" stroke-miterlimit="8" fill="#055C99"/><text fill="#FFFFFF" font-family="Arial,Arial_MSFontService,sans-serif" font-weight="400" font-size="83" transform="matrix(1 0 0 1 387.75 927)">CIPS</text><rect x="963" y="576" width="453" height="352" fill="#282D3F"/><text fill="#FFFFFF" font-family="Arial,Arial_MSFontService,sans-serif" font-weight="400" font-size="83" transform="matrix(1 0 0 1 1086.24 733)">Clock <tspan font-size="83" x="-25.2083" y="99">Wizard</tspan></text><rect x="2673" y="531" width="1577" height="736" stroke="#055C99" stroke-width="2.29167" stroke-miterlimit="8" fill="url(#fill1)"/><rect x="1635" y="1060" width="611" height="210" fill="#282D3F"/><text fill="#FFFFFF" font-family="Arial,Arial_MSFontService,sans-serif" font-weight="400" font-size="83" transform="matrix(1 0 0 1 1679.13 1196)">ProcSysReset<tspan fill="#0C0C0C" font-size="83" x="1092.52" y="6">Vitis Region</tspan></text><path d="M751.5 749.062 940.519 749.063 940.519 755.938 751.5 755.937ZM935.935 738.75 963.435 752.5 935.935 766.25Z" fill="#282D3F"/><path d="M1524.5 751.063 2723.47 751.063 2723.47 757.938 1524.5 757.938ZM2718.89 740.75 2746.39 754.5 2718.89 768.25Z" fill="#282D3F"/><path d="M1416.5 749.062 1529.71 749.062 1529.71 1165.6 1526.27 1162.16 1613.12 1162.16 1613.12 1169.04 1522.83 1169.04 1522.83 752.5 1526.27 755.937 1416.5 755.937ZM1608.54 1151.85 1636.04 1165.6 1608.54 1179.35Z" fill="#282D3F"/><text fill="#0C0C0C" font-family="Arial,Arial_MSFontService,sans-serif" font-weight="400" font-size="83" transform="matrix(1 0 0 1 2343.67 717)">Clock 1<tspan font-size="83" x="-4.62769" y="421">Reset 1</tspan></text><path d="M2246.5 1162.06 2637.64 1162.06 2637.64 1168.94 2246.5 1168.94ZM2633.06 1151.75 2660.56 1165.5 2633.06 1179.25Z" fill="#686C75"/><rect x="2746" y="576" width="453" height="352" fill="#282D3F"/><text fill="#FFFFFF" font-family="Arial,Arial_MSFontService,sans-serif" font-weight="400" font-size="83" transform="matrix(1 0 0 1 2869.33 733)">Clock <tspan font-size="83" x="-25.2083" y="99">Wizard</tspan></text><rect x="3294" y="850" width="611" height="210" fill="#282D3F"/><text fill="#FFFFFF" font-family="Arial,Arial_MSFontService,sans-serif" font-weight="400" font-size="83" transform="matrix(1 0 0 1 3338.14 986)">ProcSysReset</text><path d="M756.5 1221.06 1612.72 1221.06 1612.72 1227.94 756.5 1227.94ZM1608.14 1210.75 1635.64 1224.5 1608.14 1238.25Z" fill="#686C75"/><path d="M3199.5 749.062 4079.27 749.063 4079.27 755.938 3199.5 755.937ZM4074.68 738.75 4102.18 752.5 4074.68 766.25Z" fill="#282D3F"/><path d="M3199.5 749.062 3250.66 749.062 3250.66 955.512 3247.23 952.075 3272.04 952.075 3272.04 958.95 3243.79 958.95 3243.79 752.5 3247.23 755.937 3199.5 755.937ZM3267.45 941.762 3294.95 955.512 3267.45 969.262Z" fill="#282D3F"/><path d="M3911.5 956.062 4078.73 956.063 4078.73 962.938 3911.5 962.937ZM4074.14 945.75 4101.64 959.5 4074.14 973.25Z" fill="#686C75"/><text fill="#0C0C0C" font-family="Arial,Arial_MSFontService,sans-serif" font-weight="400" font-size="83" transform="matrix(1 0 0 1 3938.22 700)">Clock 2<tspan font-size="83" x="0" y="206">Reset 2</tspan></text></g></svg>