<svg width="4295" height="1069" xmlns="http://www.w3.org/2000/svg" xmlns:xlink="http://www.w3.org/1999/xlink" xml:space="preserve" overflow="hidden"><defs><clipPath id="clip0"><rect x="74" y="394" width="4295" height="1069"/></clipPath><linearGradient x1="3628" y1="526" x2="3628" y2="1262" gradientUnits="userSpaceOnUse" spreadMethod="reflect" id="fill1"><stop offset="0" stop-color="#9CADCD"/><stop offset="0.5" stop-color="#8EA1C2"/><stop offset="1" stop-color="#7992BC"/></linearGradient></defs><g clip-path="url(#clip0)" transform="translate(-74 -394)"><rect x="73.9999" y="394" width="4295" height="1069" fill="#FFFFFF"/><rect x="209.5" y="526.5" width="550" height="864" stroke="#FFFFFF" stroke-width="6.875" stroke-miterlimit="8" fill="#055C99"/><text fill="#FFFFFF" font-family="Arial,Arial_MSFontService,sans-serif" font-weight="400" font-size="83" transform="matrix(1 0 0 1 387.75 988)">CIPS</text><rect x="1023" y="612" width="695" height="210" fill="#282D3F"/><text fill="#FFFFFF" font-family="Arial,Arial_MSFontService,sans-serif" font-weight="400" font-size="83" transform="matrix(1 0 0 1 1106.74 747)">SmartConnect</text><rect x="2948" y="526" width="1360" height="736" stroke="#055C99" stroke-width="2.29167" stroke-miterlimit="8" fill="url(#fill1)"/><rect x="1980" y="1046" width="486" height="210" fill="#282D3F"/><text fill="#FFFFFF" font-family="Arial,Arial_MSFontService,sans-serif" font-weight="400" font-size="83" transform="matrix(1 0 0 1 2069.24 1132)">Interrupt <tspan font-size="83" x="-25.2083" y="99">Controller</tspan><tspan fill="#0C0C0C" font-size="83" x="1022.39" y="61">Vitis Region</tspan></text><path d="M759.5 714.062 1000.58 714.063 1000.58 720.938 759.5 720.937ZM996 703.75 1023.5 717.5 996 731.25Z" fill="#282D3F"/><path d="M1718.5 714.062 1958.01 714.063 1958.01 720.938 1718.5 720.937ZM1953.43 703.75 1980.93 717.5 1953.43 731.25Z" fill="#282D3F"/><rect x="1980" y="612" width="695" height="210" fill="#282D3F"/><text fill="#FFFFFF" font-family="Arial,Arial_MSFontService,sans-serif" font-weight="400" font-size="83" transform="matrix(1 0 0 1 2033.95 747)">DFX_Decouple<tspan font-size="83" x="559.167" y="0">r</tspan></text><path d="M2675.5 714.062 3020.3 714.063 3020.3 720.938 2675.5 720.937ZM3015.71 703.75 3043.21 717.5 3015.71 731.25Z" fill="#282D3F"/><path d="M1718.5 714.062 1853.15 714.062 1853.15 1151.4 1849.71 1147.96 1958.01 1147.96 1958.01 1154.84 1846.28 1154.84 1846.28 717.5 1849.71 720.937 1718.5 720.937ZM1953.43 1137.65 1980.93 1151.4 1953.43 1165.15Z" fill="#282D3F"/><rect x="3042" y="612" width="486" height="210" fill="#282D3F"/><text fill="#FFFFFF" font-family="Arial,Arial_MSFontService,sans-serif" font-weight="400" font-size="83" transform="matrix(1 0 0 1 3131.53 698)">Register <tspan font-size="83" x="64.1668" y="99">Slice</tspan></text><rect x="3619" y="612" width="611" height="210" fill="#282D3F"/><text fill="#FFFFFF" font-family="Arial,Arial_MSFontService,sans-serif" font-weight="400" font-size="83" transform="matrix(1 0 0 1 3661.1 747)">SmartConnect</text><path d="M4.08337e-05-3.4375 68.2264-3.43669 68.2263 3.43831-4.08337e-05 3.4375ZM63.6432-13.7492 91.143 0.00108268 63.6428 13.7508Z" fill="#282D3F" transform="matrix(1 0 0 -1 3528.5 717.501)"/></g></svg>