<svg width="4295" height="1108" xmlns="http://www.w3.org/2000/svg" xmlns:xlink="http://www.w3.org/1999/xlink" xml:space="preserve" overflow="hidden"><defs><clipPath id="clip0"><rect x="74" y="355" width="4295" height="1108"/></clipPath><linearGradient x1="3537.5" y1="526" x2="3537.5" y2="1262" gradientUnits="userSpaceOnUse" spreadMethod="reflect" id="fill1"><stop offset="0" stop-color="#9CADCD"/><stop offset="0.5" stop-color="#8EA1C2"/><stop offset="1" stop-color="#7992BC"/></linearGradient></defs><g clip-path="url(#clip0)" transform="translate(-74 -355)"><rect x="73.9999" y="355" width="4295" height="1108" fill="#FFFFFF"/><rect x="209.5" y="531.5" width="550" height="731" stroke="#FFFFFF" stroke-width="6.875" stroke-miterlimit="8" fill="#055C99"/><text fill="#FFFFFF" font-family="Arial,Arial_MSFontService,sans-serif" font-weight="400" font-size="83" transform="matrix(1 0 0 1 387.75 927)">CIPS</text><rect x="1023" y="612" width="695" height="210" fill="#282D3F"/><text fill="#FFFFFF" font-family="Arial,Arial_MSFontService,sans-serif" font-weight="400" font-size="83" transform="matrix(1 0 0 1 1106.74 747)">SmartConnect</text><rect x="2948" y="526" width="1179" height="736" stroke="#055C99" stroke-width="2.29167" stroke-miterlimit="8" fill="url(#fill1)"/><rect x="1980" y="1046" width="695" height="210" fill="#282D3F"/><text fill="#FFFFFF" font-family="Arial,Arial_MSFontService,sans-serif" font-weight="400" font-size="83" transform="matrix(1 0 0 1 2173.74 1132)">Interrupt <tspan font-size="83" x="-25.2083" y="99">Controller</tspan><tspan fill="#0C0C0C" font-size="83" x="917.894" y="61">Vitis Region</tspan></text><path d="M759.5 714.062 1000.58 714.063 1000.58 720.938 759.5 720.937ZM996 703.75 1023.5 717.5 996 731.25Z" fill="#282D3F"/><path d="M1718.5 714.062 1958.01 714.063 1958.01 720.938 1718.5 720.937ZM1953.43 703.75 1980.93 717.5 1953.43 731.25Z" fill="#282D3F"/><rect x="1980" y="612" width="695" height="210" fill="#282D3F"/><text fill="#FFFFFF" font-family="Arial,Arial_MSFontService,sans-serif" font-weight="400" font-size="83" transform="matrix(1 0 0 1 2033.95 747)">DFX_Decouple<tspan font-size="83" x="559.167" y="0">r</tspan></text><path d="M1718.5 714.062 1853.15 714.062 1853.15 1151.4 1849.71 1147.96 1958.01 1147.96 1958.01 1154.84 1846.28 1154.84 1846.28 717.5 1849.71 720.937 1718.5 720.937ZM1953.43 1137.65 1980.93 1151.4 1953.43 1165.15Z" fill="#282D3F"/><rect x="3407" y="752" width="612" height="210" fill="#282D3F"/><text fill="#FFFFFF" font-family="Arial,Arial_MSFontService,sans-serif" font-weight="400" font-size="83" transform="matrix(1 0 0 1 3582.43 887)">Concat</text><path d="M4018.91 855.224 4230.29 855.224 4228 857.516 4228 407.43 4230.29 409.721 2327.5 409.721 2329.79 407.43 2329.79 589.583 2325.21 589.583 2325.21 405.138 4232.58 405.138 4232.58 859.808 4018.91 859.808ZM2341.25 585 2327.5 612.5 2313.75 585Z" fill="#0D9079"/><path d="M2.29167-3.69519e-06 2.29199 200.9-2.29134 200.9-2.29167 3.69519e-06ZM13.7503 196.317 0.000360892 223.817-13.7497 196.317Z" fill="#0D9079" transform="matrix(-1 0 0 1 2327.5 822.5)"/><path d="M2330.08 1256.5 2330.08 1348.06 482.208 1348.06 482.208 1286.19 486.791 1286.19 486.791 1345.77 484.5 1343.48 2327.78 1343.48 2325.49 1345.77 2325.49 1256.5ZM470.75 1290.77 484.5 1263.27 498.25 1290.77Z" fill="#0D9079"/></g></svg>