<svg width="2962" height="1467" xmlns="http://www.w3.org/2000/svg" xmlns:xlink="http://www.w3.org/1999/xlink" xml:space="preserve" overflow="hidden"><defs><clipPath id="clip0"><rect x="79" y="408" width="2962" height="1467"/></clipPath><linearGradient x1="1409.5" y1="1026" x2="1409.5" y2="1763" gradientUnits="userSpaceOnUse" spreadMethod="reflect" id="fill1"><stop offset="0" stop-color="#9CADCD"/><stop offset="0.5" stop-color="#8EA1C2"/><stop offset="1" stop-color="#7992BC"/></linearGradient></defs><g clip-path="url(#clip0)" transform="translate(-79 -408)"><rect x="79.0001" y="408" width="2962" height="1467" fill="#FFFFFF"/><rect x="248.5" y="531.5" width="550" height="863" stroke="#FFFFFF" stroke-width="6.875" stroke-miterlimit="8" fill="#055C99"/><text fill="#FFFFFF" font-family="Arial,Arial_MSFontService,sans-serif" font-weight="400" font-size="83" transform="matrix(1 0 0 1 427.036 993)">CIPS</text><rect x="1062" y="531" width="695" height="351" fill="#282D3F"/><text fill="#FFFFFF" font-family="Arial,Arial_MSFontService,sans-serif" font-weight="400" font-size="83" transform="matrix(1 0 0 1 1239.99 737)">PS_NOC</text><rect x="2035" y="531" width="740" height="865" fill="#282D3F"/><text fill="#FFFFFF" font-family="Arial,Arial_MSFontService,sans-serif" font-weight="400" font-size="83" transform="matrix(1 0 0 1 2155.28 944)">DDR Memory <tspan font-size="83" x="-59.5835" y="99">Controller (NOC)</tspan></text><rect x="1062" y="1026" width="695" height="737" stroke="#055C99" stroke-width="2.29167" stroke-miterlimit="8" fill="url(#fill1)"/><rect x="1182" y="1184" width="485" height="210" fill="#282D3F"/><text fill="#FFFFFF" font-family="Arial,Arial_MSFontService,sans-serif" font-weight="400" font-size="83" transform="matrix(1 0 0 1 1236.58 1320)">NOC Stub<tspan fill="#0C0C0C" font-size="83" x="-33.8022" y="380">Vitis Region</tspan></text><path d="M800.5 703.062 1040.01 703.063 1040.01 709.938 800.5 709.937ZM1035.43 692.75 1062.93 706.5 1035.43 720.25Z" fill="#282D3F"/><path d="M1757.5 703.062 1997.01 703.063 1997.01 709.938 1757.5 709.937ZM1992.43 692.75 2019.93 706.5 1992.43 720.25Z" fill="#282D3F"/><path d="M1667.5 1286.06 2012.3 1286.06 2012.3 1292.94 1667.5 1292.94ZM2007.71 1275.75 2035.21 1289.5 2007.71 1303.25Z" fill="#282D3F"/></g></svg>