<?xml version="1.0" encoding="utf-8"?>
<!-- Generator: Adobe Illustrator 25.4.1, SVG Export Plug-In . SVG Version: 6.00 Build 0)  -->
<svg version="1.1" xmlns="http://www.w3.org/2000/svg" xmlns:xlink="http://www.w3.org/1999/xlink" x="0px" y="0px"
	 viewBox="0 0 155.7 96.8" style="enable-background:new 0 0 155.7 96.8;" xml:space="preserve">
<style type="text/css">
	.st0{display:none;}
	.st1{display:inline;}
	.st2{display:inline;fill:none;}
	.st3{font-family:'AkzidenzGroteskPro-Regular';}
	.st4{font-size:59px;}
	.st5{letter-spacing:-2;}
	.st6{letter-spacing:-1;}
	.st7{letter-spacing:-3;}
	.st8{fill:#FFFFFF;}
	.st9{font-family:'AkzidenzGroteskPro-Light';}
</style>
<g id="Layer_1" class="st0">
	<g id="XMLID_1_" class="st1">
		<g id="XMLID_5_">
			<path id="XMLID_11_" d="M36.4,34.5h-8.6l-2.6-6.3H10.8l-2.4,6.3H0l12.9-32h9.2L36.4,34.5z M17.6,10.1l-4.7,12.4h9.9L17.6,10.1z"
				/>
			<path id="XMLID_9_" d="M67.5,2.5h6.9v32h-8v-20l-8.6,10h-1.2l-8.6-10v20h-8v-32H47l10.3,11.9L67.5,2.5z"/>
			<path id="XMLID_6_" d="M94.7,2.5c11.7,0,17.7,7.3,17.7,16c0,9.2-5.8,15.9-18.6,15.9H80.6v-32H94.7z M88.5,28.6h5.2
				c8,0,10.4-5.4,10.4-10.1c0-5.5-3-10.1-10.5-10.1h-5.1V28.6z"/>
		</g>
		<g id="XMLID_2_">
			<polygon id="XMLID_4_" points="144.7,10.1 128.2,10.1 118.2,0 154.8,0 154.8,36.6 144.7,26.6 			"/>
			<polygon id="XMLID_3_" points="128.2,26.6 128.2,12.1 117.9,22.4 117.9,36.9 132.4,36.9 142.7,26.6 			"/>
		</g>
	</g>
	<g class="st1">
		<path d="M5.7,91.5h25v3.5H0.1v-2.6L25.7,57H1.6v-3.5H31v2.7L5.7,91.5z"/>
		<path d="M53.3,77.9v17.2h-3.9V77.9L33.9,53.4h4.7l12.9,20.7l13.4-20.7h4.8L53.3,77.9z"/>
		<path d="M101.3,95.1l-24.4-36v36h-3.9V53.4h3.9l24.7,35.6c0,0-0.3-34.8-0.3-35.6h3.9v41.7H101.3z"/>
		<path d="M144.6,96l-5.3-4.8c-1.9,1.9-5.5,5-12.3,5c-13.8,0-18.1-12.3-18.1-21.5c0-12.6,6.6-22.3,18.4-22.3
			c13.2,0,17.6,12.2,17.6,21.4c0,2.4-0.1,8.4-3.5,14.4l5.6,5.2L144.6,96z M127.3,55.8c-11,0-14.1,11-14.1,18.8
			c0,5.4,1.8,18.2,13.9,18.2c8.7,0,13.9-7.2,13.9-18.3C141,68.5,139.2,55.8,127.3,55.8z"/>
	</g>
</g>
<g id="Layer_1_copy" class="st0">
	<g id="XMLID_14_" class="st1">
		<g id="XMLID_18_">
			<path id="XMLID_24_" d="M36.4,34.5h-8.6l-2.6-6.3H10.8l-2.4,6.3H0l12.9-32h9.2L36.4,34.5z M17.6,10.1l-4.7,12.4h9.9L17.6,10.1z"
				/>
			<path id="XMLID_22_" d="M67.5,2.5h6.9v32h-8v-20l-8.6,10h-1.2l-8.6-10v20h-8v-32H47l10.3,11.9L67.5,2.5z"/>
			<path id="XMLID_19_" d="M94.7,2.5c11.7,0,17.7,7.3,17.7,16c0,9.2-5.8,15.9-18.6,15.9H80.6v-32H94.7z M88.5,28.6h5.2
				c8,0,10.4-5.4,10.4-10.1c0-5.5-3-10.1-10.5-10.1h-5.1V28.6z"/>
		</g>
		<g id="XMLID_15_">
			<polygon id="XMLID_17_" points="144.7,10.1 128.2,10.1 118.2,0 154.8,0 154.8,36.6 144.7,26.6 			"/>
			<polygon id="XMLID_16_" points="128.2,26.6 128.2,12.1 117.9,22.4 117.9,36.9 132.4,36.9 142.7,26.6 			"/>
		</g>
	</g>
	<rect x="-1.6" y="53.4" class="st2" width="362.7" height="130.8"/>
	<text transform="matrix(1 0 0 1 -1.6409 95.0799)" class="st1"><tspan x="0" y="0" class="st3 st4 st5">x</tspan><tspan x="33.9" y="0" class="st3 st4 st6">i</tspan><tspan x="46.3" y="0" class="st3 st4 st6">l</tspan><tspan x="75.5" y="0" class="st3 st4 st5">i</tspan><tspan x="87" y="0" class="st3 st4 st5">n</tspan><tspan x="126.4" y="0" class="st3 st4 st5">x</tspan><tspan x="160.3" y="0" class="st3 st4"> </tspan><tspan x="176.3" y="0" class="st3 st4">Z</tspan><tspan x="212.5" y="0" class="st3 st4 st5">y</tspan><tspan x="247.3" y="0" class="st3 st4 st7">n</tspan><tspan x="285.3" y="0" class="st3 st4">q</tspan></text>
</g>
<g id="Layer_4">
	<g>
		<polygon class="st8" points="32.6,53.1 26.1,53.1 17.1,69.1 8.1,53.2 8,53.1 1.5,53.1 13.9,74.2 0.7,96.4 7.1,96.4 17.1,79.2 
			27,96.4 33.5,96.4 20.1,74.2 		"/>
		<rect x="36" y="53.1" class="st8" width="5.6" height="43.3"/>
		<polygon class="st8" points="53.9,53.1 48.2,53.1 48.2,96.4 71.4,96.4 71.4,91.2 53.9,91.2 		"/>
		<rect x="75.2" y="53.1" class="st8" width="5.6" height="43.3"/>
		<polygon class="st8" points="114.1,85.5 92.7,53.2 92.6,53.1 87.4,53.1 87.4,96.4 93.1,96.4 93.1,63.9 114.5,96.3 114.6,96.4 
			119.7,96.4 119.7,53.1 114.1,53.1 		"/>
		<polygon class="st8" points="141.6,74.2 153.9,53.5 154.1,53.1 147.6,53.1 138.6,69.1 129.6,53.2 129.5,53.1 123,53.1 135.4,74.2 
			122.2,96.4 128.6,96.4 138.6,79.2 148.5,96.4 155,96.4 		"/>
		<path class="st8" d="M12,28.7h13.8l2.6,6.2h9l-14.2-32h-9.4l-12.9,32h8.9L12,28.7z M14.2,22.7l4.3-11.3l4.7,11.3H14.2z"/>
		<polygon class="st8" points="57.5,14.4 47.5,2.9 40.3,2.9 40.3,34.9 48.7,34.9 48.7,15.6 56.8,25.1 58.3,25.1 66.4,15.6 
			66.4,34.9 74.8,34.9 74.8,2.9 67.6,2.9 		"/>
		<path class="st8" d="M112.1,18.9c0-9.8-6.9-16.1-17.7-16.1H80.3v32h13.3C105.3,34.9,112.1,29.1,112.1,18.9z M103.5,18.9
			c0,9-7.7,9.7-10,9.7h-4.9V9.1h4.8C99.8,9.1,103.5,12.7,103.5,18.9z"/>
		<polygon class="st8" points="143.5,10.8 143.5,27 153.9,37.4 153.9,0.4 117,0.4 127.4,10.8 		"/>
		<polygon class="st8" points="117,22.7 117,37.3 131.7,37.3 142.4,26.6 127.7,26.6 127.7,12 		"/>
	</g>
</g>
<g id="Layer_2" class="st0">
	<rect x="-1.6" y="53.4" class="st2" width="362.7" height="130.8"/>
	<text transform="matrix(1 0 0 1 -1.6409 95.0799)" class="st1"><tspan x="0" y="0" class="st9 st4">Z</tspan><tspan x="35" y="0" class="st9 st4 st5">y</tspan><tspan x="69.8" y="0" class="st9 st4 st7">n</tspan><tspan x="107.7" y="0" class="st9 st4">q</tspan></text>
	<rect x="-1.6" y="53.4" class="st2" width="362.7" height="130.8"/>
	<text transform="matrix(1 0 0 1 -1.6409 95.0799)" class="st1"><tspan x="0" y="0" class="st9 st4">Z</tspan><tspan x="35" y="0" class="st9 st4 st5">y</tspan><tspan x="69.8" y="0" class="st9 st4 st7">n</tspan><tspan x="107.7" y="0" class="st9 st4">q</tspan></text>
</g>
</svg>
