<svg width="1023" height="587" xmlns="http://www.w3.org/2000/svg" xmlns:xlink="http://www.w3.org/1999/xlink" overflow="hidden"><defs><clipPath id="clip0"><path d="M123 91 1146 91 1146 678 123 678Z" fill-rule="evenodd" clip-rule="evenodd"/></clipPath></defs><g clip-path="url(#clip0)" transform="translate(-123 -91)"><rect x="124" y="91" width="1021" height="586" fill="#FFFFFF"/><rect x="525" y="185" width="100" height="179" fill="#0D9079"/><rect x="349" y="186" width="100" height="178" fill="#055C99"/><rect x="184" y="189" width="89" height="173" stroke="#FFFFFF" stroke-width="2" stroke-miterlimit="8" fill="#E20000"/><text fill="#FFFFFF" font-family="Arial,Arial_MSFontService,sans-serif" font-weight="400" font-size="24" transform="translate(360.732 235)">Peta<tspan x="0" y="29">Linux</tspan><tspan x="178.971" y="6">Vitis/</tspan><tspan x="178.971" y="35">XSC</tspan><tspan x="228.305" y="35">T</tspan><tspan x="-169.11" y="25">Vivado</tspan></text><rect x="133.5" y="153.5" width="562" height="328" stroke="#E20000" stroke-miterlimit="8" stroke-dasharray="4 3" fill="none"/><text fill="#FF8D8D" font-family="Arial,Arial_MSFontService,sans-serif" font-style="italic" font-weight="400" font-size="19" transform="translate(549.784 504)">Platform Creation</text><rect x="134" y="532" width="1000" height="110" fill="#DFDFDF"/><text fill="#0C0C0C" font-family="Consolas,Consolas_MSFontService,sans-serif" font-weight="400" font-size="19" transform="translate(232.553 384)">XSA</text><rect x="351" y="408" width="99" height="39" fill="#055C99"/><text fill="#FFFFFF" font-family="Arial,Arial_MSFontService,sans-serif" font-weight="400" font-size="24" transform="translate(360.732 436)">DTG<tspan fill="#0C0C0C" font-family="Consolas,Consolas_MSFontService,sans-serif" font-size="19" x="48.7026" y="26">dtbo</tspan><tspan fill="#0C0C0C" font-family="Consolas,Consolas_MSFontService,sans-serif" font-size="19" x="13.2086" y="-52">sysroot</tspan><tspan fill="#0C0C0C" font-family="Consolas,Consolas_MSFontService,sans-serif" font-size="19" x="218.285" y="-53">xpfm</tspan><tspan fill="#0C0C0C" x="-165.278" y="-298">Step 1</tspan><tspan fill="#0C0C0C" x="4.15421" y="-298">Step 2</tspan><tspan fill="#0C0C0C" x="173.586" y="-298">Step 3</tspan><tspan fill="#0C0C0C" x="533.874" y="-297">Step 4</tspan></text><path d="M0-0.5 34.8186-0.5 34.8186 96.1665 33.8186 96.1665 33.8186 0 34.3186 0.5 0 0.5ZM38.3186 94.8332 34.3186 102.833 30.3186 94.8332Z" fill="#E20000" transform="matrix(-4.37114e-08 1 1 4.37114e-08 248.5 393.5)"/><rect x="880" y="185" width="100" height="179" fill="#0D9079"/><text fill="#FFFFFF" font-family="Arial,Arial_MSFontService,sans-serif" font-weight="400" font-size="24" transform="translate(894.605 235)">Vitis<tspan fill="#0C0C0C" font-family="Consolas,Consolas_MSFontService,sans-serif" font-size="19" x="21.5583" y="149">xclbin</tspan><tspan fill="#0C0C0C" font-family="Consolas,Consolas_MSFontService,sans-serif" font-size="19" x="52.5583" y="171">el</tspan><tspan fill="#0C0C0C" font-family="Consolas,Consolas_MSFontService,sans-serif" font-size="19" x="73.225" y="171">f</tspan><tspan fill="#0C0C0C" font-family="Consolas,Consolas_MSFontService,sans-serif" font-size="19" x="52.5583" y="193">bit</tspan></text><path d="M0.00384814-0.499985 126.881 0.476526 126.873 1.4765-0.00384814 0.499985ZM125.575-3.03363 133.544 1.02782 125.513 4.96613Z" fill="#E20000" transform="matrix(1 0 0 -1 695.5 247.528)"/><text fill="#0C0C0C" font-family="Consolas,Consolas_MSFontService,sans-serif" font-weight="400" font-size="19" transform="translate(1043.32 429)">b<tspan x="10.3334" y="0">it.bin</tspan></text><path d="M988.5 422 1027.66 422 1027.66 423 988.5 423ZM1026.33 418.5 1034.33 422.5 1026.33 426.5Z" fill="#E20000"/><text fill="#0C0C0C" font-family="Consolas,Consolas_MSFontService,sans-serif" font-weight="400" font-size="19" transform="translate(1015.05 454)">shell.json</text><rect x="829.5" y="153.5" width="305" height="328" stroke="#E20000" stroke-miterlimit="8" stroke-dasharray="4 3" fill="none"/><text fill="#FF8D8D" font-family="Arial,Arial_MSFontService,sans-serif" font-style="italic" font-weight="400" font-size="19" transform="translate(926.968 503)">Application Development<tspan fill="#0C0C0C" font-family="Consolas,Consolas_MSFontService,sans-serif" font-style="normal" x="-779.816" y="57">/lib/firmware/Xilinx/&lt;app&gt;:</tspan><tspan fill="#0C0C0C" font-style="normal" x="-779.816" y="79">•</tspan><tspan fill="#0C0C0C" font-family="Consolas,Consolas_MSFontService,sans-serif" font-style="normal" x="-749.816" y="79">&lt;app&gt;.</tspan><tspan fill="#0C0C0C" font-family="Consolas,Consolas_MSFontService,sans-serif" font-style="normal" x="-687.816" y="79">bit.bin</tspan><tspan fill="#0C0C0C" font-style="normal" x="-779.816" y="101">•</tspan><tspan fill="#0C0C0C" font-family="Consolas,Consolas_MSFontService,sans-serif" font-style="normal" x="-749.816" y="101">&lt;app&gt;.</tspan><tspan fill="#0C0C0C" font-family="Consolas,Consolas_MSFontService,sans-serif" font-style="normal" x="-687.816" y="101">dtbo</tspan><tspan fill="#0C0C0C" font-style="normal" x="-779.816" y="124">•</tspan><tspan fill="#0C0C0C" font-family="Consolas,Consolas_MSFontService,sans-serif" font-style="normal" x="-749.816" y="124">shell.json</tspan><tspan fill="#0C0C0C" font-family="Consolas,Consolas_MSFontService,sans-serif" font-style="normal" x="-211.854" y="59">/home/&lt;user&gt;:</tspan><tspan fill="#0C0C0C" font-style="normal" x="-211.854" y="81">•</tspan><tspan fill="#0C0C0C" font-family="Consolas,Consolas_MSFontService,sans-serif" font-style="normal" x="-181.854" y="81">&lt;app&gt;.elf</tspan><tspan fill="#0C0C0C" font-style="normal" x="-211.854" y="103">•</tspan><tspan fill="#0C0C0C" font-family="Consolas,Consolas_MSFontService,sans-serif" font-style="normal" x="-181.854" y="103">&lt;app&gt;.</tspan><tspan fill="#0C0C0C" font-family="Consolas,Consolas_MSFontService,sans-serif" font-style="normal" x="-119.854" y="103">xclbin</tspan></text><path d="M0-0.5 8.63218-0.5 8.63218 510.637 7.63218 510.637 7.63218 0 8.13218 0.5 0 0.5ZM12.1322 509.304 8.13218 517.304 4.13218 509.304Z" fill="#E20000" transform="matrix(-4.37114e-08 1 1 4.37114e-08 411.5 393.5)"/><text fill="#9F9F9F" font-family="Arial,Arial_MSFontService,sans-serif" font-style="italic" font-weight="400" font-size="19" transform="translate(952.498 662)">KV260 Board <tspan x="116" y="0">RootFS</tspan></text></g></svg>