<svg width="781" height="488" xmlns="http://www.w3.org/2000/svg" xmlns:xlink="http://www.w3.org/1999/xlink" overflow="hidden"><defs><clipPath id="clip0"><path d="M60 154 841 154 841 642 60 642Z" fill-rule="evenodd" clip-rule="evenodd"/></clipPath></defs><g clip-path="url(#clip0)" transform="translate(-60 -154)"><path d="M219.802 245.5 219.802 288.849 254.023 288.849 254.023 282.5 280.5 301 254.023 319.5 254.023 313.151 195.5 313.151 195.5 245.5Z" stroke="#FFFFFF" stroke-miterlimit="8" fill="#F1BCBC" fill-rule="evenodd"/><path d="M181.5 172.17C181.5 164.068 188.068 157.5 196.17 157.5L291.83 157.5C299.932 157.5 306.5 164.068 306.5 172.17L306.5 230.83C306.5 238.932 299.932 245.5 291.83 245.5L196.17 245.5C188.068 245.5 181.5 238.932 181.5 230.83Z" stroke="#FFFFFF" stroke-miterlimit="8" fill="#E20000" fill-rule="evenodd"/><text fill="#FFFFFF" font-family="Arial,Arial_MSFontService,sans-serif" font-weight="400" font-size="16" transform="translate(197.333 189)">Step 0: Base <tspan x="14.2267" y="17">Bootable </tspan><tspan x="20.9133" y="33">Design</tspan></text><path d="M323.802 343.5 323.802 386.849 357.023 386.849 357.023 380.5 383.5 399 357.023 417.5 357.023 411.151 299.5 411.151 299.5 343.5Z" stroke="#FFFFFF" stroke-miterlimit="8" fill="#F1BCBC" fill-rule="evenodd"/><path d="M284.5 271.003C284.5 262.993 290.993 256.5 299.003 256.5L394.997 256.5C403.007 256.5 409.5 262.993 409.5 271.003L409.5 328.997C409.5 337.007 403.007 343.5 394.997 343.5L299.003 343.5C290.993 343.5 284.5 337.007 284.5 328.997Z" stroke="#FFFFFF" stroke-miterlimit="8" fill="#E20000" fill-rule="evenodd"/><text fill="#FFFFFF" font-family="Arial,Arial_MSFontService,sans-serif" font-weight="400" font-size="16" transform="translate(293.374 287)">Step 1: Update <tspan x="18.7" y="17">Hardware </tspan><tspan x="23.5933" y="33">Platform</tspan></text><path d="M427.13 441.5 427.13 485.435 460.665 485.435 460.665 479 487.5 497.75 460.665 516.5 460.665 510.065 402.5 510.065 402.5 441.5Z" stroke="#FFFFFF" stroke-miterlimit="8" fill="#F1BCBC" fill-rule="evenodd"/><path d="M388.5 369.003C388.5 360.993 394.993 354.5 403.003 354.5L498.997 354.5C507.007 354.5 513.5 360.993 513.5 369.003L513.5 426.997C513.5 435.007 507.007 441.5 498.997 441.5L403.003 441.5C394.993 441.5 388.5 435.007 388.5 426.997Z" stroke="#FFFFFF" stroke-miterlimit="8" fill="#E20000" fill-rule="evenodd"/><text fill="#FFFFFF" font-family="Arial,Arial_MSFontService,sans-serif" font-weight="400" font-size="16" transform="translate(396.978 386)">Step 2: Update <tspan x="21.8066" y="17">Software </tspan><tspan x="28.48" y="33">Design</tspan></text><path d="M530.802 540.5 530.802 583.849 565.023 583.849 565.023 577.5 591.5 596 565.023 614.5 565.023 608.151 506.5 608.151 506.5 540.5Z" stroke="#FFFFFF" stroke-miterlimit="8" fill="#F1BCBC" fill-rule="evenodd"/><path d="M491.5 467.17C491.5 459.068 498.068 452.5 506.17 452.5L601.83 452.5C609.932 452.5 616.5 459.068 616.5 467.17L616.5 525.83C616.5 533.932 609.932 540.5 601.83 540.5L506.17 540.5C498.068 540.5 491.5 533.932 491.5 525.83Z" stroke="#FFFFFF" stroke-miterlimit="8" fill="#E20000" fill-rule="evenodd"/><text fill="#FFFFFF" font-family="Arial,Arial_MSFontService,sans-serif" font-weight="400" font-size="16" transform="translate(502.368 492)">Step 3: Create <tspan x="4.61331" y="17">Vitis Platform </tspan></text><path d="M595.5 565.17C595.5 557.068 602.068 550.5 610.17 550.5L705.83 550.5C713.932 550.5 720.5 557.068 720.5 565.17L720.5 623.83C720.5 631.932 713.932 638.5 705.83 638.5L610.17 638.5C602.068 638.5 595.5 631.932 595.5 623.83Z" stroke="#FFFFFF" stroke-miterlimit="8" fill="#E20000" fill-rule="evenodd"/><text fill="#FFFFFF" font-family="Arial,Arial_MSFontService,sans-serif" font-weight="400" font-size="16" transform="translate(615.458 591)">Step 4: Test <tspan x="-4.87335" y="17">Vitis Platform</tspan></text><path d="M148 303.5C148 283.894 163.67 268 183 268 202.33 268 218 283.894 218 303.5 218 323.106 202.33 339 183 339 163.67 339 148 323.106 148 303.5Z" stroke="#FFFFFF" stroke-width="2" stroke-miterlimit="8" fill="#E20000" fill-rule="evenodd"/><text fill="#FFFFFF" font-family="Arial,Arial_MSFontService,sans-serif" font-weight="400" font-size="16" transform="translate(168.115 310)">Test</text><path d="M253 405C253 385.67 268.67 370 288 370 307.33 370 323 385.67 323 405 323 424.33 307.33 440 288 440 268.67 440 253 424.33 253 405Z" stroke="#FFFFFF" stroke-width="2" stroke-miterlimit="8" fill="#E20000" fill-rule="evenodd"/><text fill="#FFFFFF" font-family="Arial,Arial_MSFontService,sans-serif" font-weight="400" font-size="16" transform="translate(273.38 411)">Test</text><path d="M353 501C353 481.67 368.894 466 388.5 466 408.106 466 424 481.67 424 501 424 520.33 408.106 536 388.5 536 368.894 536 353 520.33 353 501Z" stroke="#FFFFFF" stroke-width="2" stroke-miterlimit="8" fill="#E20000" fill-rule="evenodd"/><text fill="#FFFFFF" font-family="Arial,Arial_MSFontService,sans-serif" font-weight="400" font-size="16" transform="translate(373.996 507)">Test</text></g></svg>