<svg width="1280" height="720" xmlns="http://www.w3.org/2000/svg" xmlns:xlink="http://www.w3.org/1999/xlink" overflow="hidden"><defs><clipPath id="clip0"><rect x="0" y="0" width="1280" height="720"/></clipPath></defs><g clip-path="url(#clip0)"><rect x="0" y="0" width="1280" height="720" fill="#FFFFFF"/><path d="M288.5 469.5C288.5 428.079 335.286 394.5 393 394.5 450.714 394.5 497.5 428.079 497.5 469.5 497.5 510.921 450.714 544.5 393 544.5 335.286 544.5 288.5 510.921 288.5 469.5Z" stroke="#4472C4" stroke-width="1.33333" stroke-miterlimit="8" fill="#FFFF00" fill-rule="evenodd"/><rect x="10.5001" y="69.5001" width="657" height="545" stroke="#FF0000" stroke-width="1.33333" stroke-miterlimit="8" stroke-dasharray="5.33333 4" fill="none"/><rect x="42.5001" y="99.5001" width="158" height="288" stroke="#2F528F" stroke-linejoin="round" stroke-miterlimit="10" fill="#FF0000"/><text fill="#FFFFFF" font-family="Arial,Arial_MSFontService,sans-serif" font-weight="400" font-size="32" transform="translate(72.1605 250)">Vivado</text><rect x="295.5" y="99.5001" width="171" height="288" stroke="#4472C4" stroke-linejoin="round" stroke-miterlimit="10" stroke-dasharray="4 3" fill="#DEEBF7"/><text font-family="Arial,Arial_MSFontService,sans-serif" font-weight="400" font-size="32" transform="translate(309.458 250)">Peta<tspan font-size="32" x="65.8333" y="0">L</tspan><tspan font-size="32" x="83.6667" y="0">inux</tspan></text><rect x="475.5" y="99.5001" width="158" height="288" stroke="#4472C4" stroke-linejoin="round" stroke-miterlimit="10" fill="#00B050"/><text fill="#FFFFFF" font-family="Arial,Arial_MSFontService,sans-serif" font-weight="400" font-size="32" transform="translate(519.479 260)">Vitis/<tspan font-size="32" x="-8.28668" y="38">XSCT</tspan><tspan fill="#000000" font-size="21" x="-425.787" y="-214">STEP1</tspan><tspan fill="#000000" font-size="21" x="-88.1262" y="-218">STEP2</tspan></text><rect x="785.5" y="71.5001" width="358" height="545" stroke="#FF0000" stroke-width="1.33333" stroke-miterlimit="8" stroke-dasharray="5.33333 4" fill="none"/><text font-family="Arial,Arial_MSFontService,sans-serif" font-weight="400" font-size="21" transform="translate(888.842 456)">xclbin<tspan font-size="21" x="10.3337" y="-34">elf</tspan></text><path d="M960.5 451.167 1028.44 451.237 1028.43 451.904 960.5 451.833ZM1027.11 447.569 1035.1 451.578 1027.1 455.569Z" fill="#FF0000"/><text font-family="Arial,Arial_MSFontService,sans-serif" font-weight="400" font-size="21" transform="translate(1044.03 453)">bin<tspan font-size="21" x="-18.6068" y="27">shell.json</tspan><tspan font-size="21" x="-194.945" y="-407">STEP3</tspan><tspan fill="#C00000" font-size="21" x="-612.674" y="187">Platform Creation</tspan><tspan fill="#C00000" font-size="21" x="-114.068" y="187">Application </tspan><tspan fill="#C00000" font-size="21" x="-4.06763" y="187">D</tspan><tspan fill="#C00000" font-size="21" x="11.2656" y="187">evelopment</tspan></text><path d="M667.5 248.167 775.171 248.167 775.171 248.833 667.5 248.833ZM773.837 244.5 781.837 248.5 773.837 252.5Z" fill="#FF0000"/><text font-family="Arial,Arial_MSFontService,sans-serif" font-weight="400" font-size="21" transform="translate(346.795 489)">Common <tspan font-size="21" x="13.5867" y="25">Image</tspan></text><rect x="472" y="538" width="121" height="35" fill="#00B050"/><text font-family="Arial,Arial_MSFontService,sans-serif" font-weight="400" font-size="21" transform="translate(481.195 563)">createdts<tspan font-size="21" x="-387.504" y="-141">XSA</tspan><tspan font-size="21" x="25.1557" y="-143">xpfm</tspan><tspan font-size="21" x="23.4254" y="29">dtbo</tspan></text><path d="M0-0.333333 123.675-0.333333 123.675 345.76 123.008 345.76 123.008 0 123.342 0.333333 0 0.333333ZM127.342 344.426 123.342 352.426 119.342 344.426Z" fill="#FF0000" transform="matrix(1.83697e-16 1 1 -1.83697e-16 119.5 432.5)"/><path d="M0-0.333333 4.29281-0.333333 4.29281 460.51 3.62614 460.51 3.62614 0 3.95948 0.333333 0 0.333333ZM7.95948 459.177 3.95948 467.177-0.0405249 459.177Z" fill="#FF0000" transform="matrix(1.83697e-16 1 1 -1.83697e-16 392.5 439.5)"/><text font-family="Arial,Arial_MSFontService,sans-serif" font-weight="400" font-size="21" transform="translate(19.3076 678)">Sysroot<tspan font-size="21" x="78.3333" y="0">can be generated from </tspan>Petalinux<tspan font-size="21" x="392.667" y="0">or extracted from common image. We suggest using </tspan>sysroot<tspan font-size="21" x="968.113" y="0">from the common image </tspan><tspan font-size="21" x="0" y="25">as it can </tspan>expedite the process of<tspan font-size="21" x="312.167" y="25">platform creation</tspan></text><path d="M328.5 415.5C328.5 407.768 358.049 401.5 394.5 401.5 430.951 401.5 460.5 407.768 460.5 415.5 460.5 423.232 430.951 429.5 394.5 429.5 358.049 429.5 328.5 423.232 328.5 415.5Z" stroke="#2F528F" stroke-width="1.33333" stroke-miterlimit="8" fill="none" fill-rule="evenodd"/><text font-family="Arial,Arial_MSFontService,sans-serif" font-weight="400" font-size="21" transform="translate(359.74 423)">sysroot</text><rect x="834.5" y="99.5001" width="158" height="288" stroke="#4472C4" stroke-linejoin="round" stroke-miterlimit="10" fill="#00B050"/><text fill="#FFFFFF" font-family="Arial,Arial_MSFontService,sans-serif" font-weight="400" font-size="32" transform="translate(878.718 260)">Vitis/<tspan font-size="32" x="-8.28662" y="38">XSCT</tspan></text></g></svg>