<svg width="1280" height="720" xmlns="http://www.w3.org/2000/svg" xmlns:xlink="http://www.w3.org/1999/xlink" overflow="hidden"><defs><clipPath id="clip0"><path d="M0 0 1280 0 1280 720 0 720Z" fill-rule="evenodd" clip-rule="evenodd"/></clipPath></defs><g clip-path="url(#clip0)"><rect x="0" y="0" width="1280" height="720" fill="#FFFFFF"/><rect x="10.5001" y="94.5001" width="657" height="546" stroke="#FF0000" stroke-miterlimit="8" stroke-dasharray="4 3" fill="none"/><rect x="42" y="133" width="158" height="368" fill="#FF0000"/><text fill="#FFFFFF" font-family="Calibri,Calibri_MSFontService,sans-serif" font-weight="400" font-size="32" transform="translate(76.5207 312)">Vivado</text><rect x="314" y="132" width="154" height="350" fill="#4472C4"/><text fill="#FFFFFF" font-family="Calibri,Calibri_MSFontService,sans-serif" font-weight="400" font-size="32" transform="translate(323.796 282)">COMMON <tspan x="22.4733" y="39">IMAGE</tspan></text><rect x="475" y="133" width="118" height="349" fill="#00B050"/><text fill="#FFFFFF" font-family="Calibri,Calibri_MSFontService,sans-serif" font-weight="400" font-size="32" transform="translate(491.409 293)">Vitis<tspan x="56" y="0">/X</tspan><tspan x="18.76" y="38">SCT</tspan><tspan fill="#000000" font-size="24" x="-389.085" y="243">XSA</tspan><tspan fill="#000000" font-size="24" x="20.6628" y="219">xpfm</tspan><tspan fill="#000000" font-size="27" x="-416.011" y="-211">STEP1</tspan><tspan fill="#000000" font-size="27" x="-53.4045" y="-211">STEP2</tspan></text><rect x="781.5" y="94.5001" width="457" height="546" stroke="#FF0000" stroke-miterlimit="8" stroke-dasharray="4 3" fill="none"/><rect x="870" y="133" width="148" height="345" fill="#00B050"/><text font-family="Calibri,Calibri_MSFontService,sans-serif" font-weight="400" font-size="32" transform="translate(916.09 312)">Vitis<tspan font-size="24" x="37.6002" y="259">xclbin</tspan><tspan font-size="24" x="48.6001" y="228">elf</tspan></text><path d="M1025.5 564 1090.83 564.07 1090.83 565.07 1025.5 565ZM1089.5 560.569 1097.5 564.578 1089.5 568.569Z" fill="#FF0000"/><text font-family="Calibri,Calibri_MSFontService,sans-serif" font-weight="400" font-size="24" transform="translate(1113.06 571)">bin<tspan x="-18.6069" y="27">shell.json</tspan><tspan font-size="27" x="-180.674" y="-491">STEP3</tspan><tspan x="-760.63" y="-59">sysroot</tspan></text><rect x="390" y="555" width="91" height="48" fill="#4472C4"/><text fill="#FFFFFF" font-family="Calibri,Calibri_MSFontService,sans-serif" font-weight="400" font-size="32" transform="translate(404.652 589)">dtbo</text><path d="M0-0.5 30.8444-0.5 30.8444 262.478 29.8444 262.478 29.8444 0 30.3444 0.5 0 0.5ZM34.3444 261.145 30.3444 269.145 26.3444 261.145Z" fill="#FF0000" transform="matrix(-4.37114e-08 1 1 4.37114e-08 121.5 548.5)"/><path d="M0-0.5 11.9677-0.5 11.9677 549.288 10.9677 549.288 10.9677 0 11.4677 0.5 0 0.5ZM15.4677 547.955 11.4677 555.955 7.46772 547.955Z" fill="#FF0000" transform="matrix(-4.37114e-08 1 1 4.37114e-08 388.5 523.5)"/><text fill="#C00000" font-family="Calibri,Calibri_MSFontService,sans-serif" font-weight="400" font-size="24" transform="translate(431.353 683)">Platform Creation<tspan x="501.034" y="0">Application </tspan><tspan x="616.78" y="0">D</tspan><tspan x="631.614" y="0">evelopment</tspan></text><path d="M667.5 306 775.171 306 775.171 307 667.5 307ZM773.837 302.5 781.837 306.5 773.837 310.5Z" fill="#FF0000"/></g></svg>