<svg width="1280" height="720" xmlns="http://www.w3.org/2000/svg" xmlns:xlink="http://www.w3.org/1999/xlink" overflow="hidden"><defs><clipPath id="clip0"><path d="M0 0 1280 0 1280 720 0 720Z" fill-rule="evenodd" clip-rule="evenodd"/></clipPath></defs><g clip-path="url(#clip0)"><rect x="0" y="0" width="1280" height="720" fill="#FFFFFF"/><path d="M288.5 469.5C288.5 428.079 335.286 394.5 393 394.5 450.714 394.5 497.5 428.079 497.5 469.5 497.5 510.921 450.714 544.5 393 544.5 335.286 544.5 288.5 510.921 288.5 469.5Z" stroke="#4472C4" stroke-miterlimit="8" fill="#FFFF00" fill-rule="evenodd"/><rect x="10.5001" y="69.5001" width="657" height="545" stroke="#FF0000" stroke-miterlimit="8" stroke-dasharray="4 3" fill="none"/><rect x="42.5001" y="99.5001" width="158" height="288" stroke="#2F528F" stroke-linejoin="round" stroke-miterlimit="10" fill="#FF0000"/><text fill="#FFFFFF" font-family="Calibri,Calibri_MSFontService,sans-serif" font-weight="400" font-size="32" transform="translate(76.5207 249)">Vivado</text><rect x="308.5" y="99.5001" width="160" height="288" stroke="#4472C4" stroke-linejoin="round" stroke-miterlimit="10" stroke-dasharray="4 3" fill="#DEEBF7"/><text font-family="Calibri,Calibri_MSFontService,sans-serif" font-weight="400" font-size="32" transform="translate(328.585 249)">Petalinux</text><rect x="475.5" y="99.5001" width="118" height="288" stroke="#4472C4" stroke-linejoin="round" stroke-miterlimit="10" fill="#00B050"/><text fill="#FFFFFF" font-family="Calibri,Calibri_MSFontService,sans-serif" font-weight="400" font-size="32" transform="translate(491.409 259)">Vitis<tspan x="56" y="0">/X</tspan><tspan x="18.76" y="38">SCT</tspan><tspan fill="#000000" font-size="27" x="-397.717" y="-209">STEP1</tspan><tspan fill="#000000" font-size="27" x="-60.0562" y="-213">STEP2</tspan></text><rect x="785.5" y="71.5001" width="358" height="545" stroke="#FF0000" stroke-miterlimit="8" stroke-dasharray="4 3" fill="none"/><rect x="827" y="99" width="148" height="288" fill="#00B050"/><text fill="#FFFFFF" font-family="Calibri,Calibri_MSFontService,sans-serif" font-weight="400" font-size="32" transform="translate(872.965 278)">Vitis<tspan fill="#000000" font-size="24" x="15.8767" y="179">xclbin</tspan><tspan fill="#000000" font-size="24" x="25.2104" y="145">elf</tspan></text><path d="M960.501 451 1028.44 451.071 1028.43 452.071 960.5 452ZM1027.11 447.569 1035.1 451.578 1027.1 455.569Z" fill="#FF0000"/><text font-family="Calibri,Calibri_MSFontService,sans-serif" font-weight="400" font-size="24" transform="translate(1044.03 454)">bin<tspan x="-18.6068" y="27">shell.json</tspan><tspan font-size="27" x="-194.945" y="-404">STEP3</tspan><tspan fill="#C00000" x="-612.674" y="187">Platform Creation</tspan><tspan fill="#C00000" x="-114.068" y="187">Application </tspan><tspan fill="#C00000" x="1.67896" y="187">D</tspan><tspan fill="#C00000" x="16.5123" y="187">evelopment</tspan></text><path d="M667.5 248 775.171 248 775.171 249 667.5 249ZM773.837 244.5 781.837 248.5 773.837 252.5Z" fill="#FF0000"/><text font-family="Calibri,Calibri_MSFontService,sans-serif" font-weight="400" font-size="21" transform="translate(350.461 488)">Common <tspan x="13.0934" y="26">Image  </tspan></text><rect x="472" y="538" width="121" height="38" fill="#00B050"/><text font-family="Calibri,Calibri_MSFontService,sans-serif" font-weight="400" font-size="24" transform="translate(486.695 564)">createdts<tspan x="-393.004" y="-141">XSA</tspan><tspan x="19.6557" y="-143">xpfm</tspan><tspan x="17.9254" y="29">dtbo</tspan></text><path d="M0-0.5 122.226-0.5 122.226 345.76 121.226 345.76 121.226 0 121.726 0.5 0 0.5ZM125.726 344.426 121.726 352.426 117.726 344.426Z" fill="#FF0000" transform="matrix(-4.37114e-08 1 1 4.37114e-08 119.5 435.5)"/><path d="M0-0.5 4.45948-0.5 4.45948 460.51 3.45948 460.51 3.45948 0 3.95948 0.5 0 0.5ZM7.95948 459.177 3.95948 467.177-0.0405249 459.177Z" fill="#FF0000" transform="matrix(-4.37114e-08 1 1 4.37114e-08 392.5 439.5)"/><text font-family="Calibri,Calibri_MSFontService,sans-serif" font-weight="400" font-size="24" transform="translate(19.3076 682)">Sysroot<tspan x="77.4333" y="0">can be generated from </tspan>Petalinux<tspan x="399.773" y="0">or extracted from common image. </tspan>We suggest using sysroot<tspan x="988.78" y="0">from the common </tspan><tspan x="0" y="29">image as it can </tspan><tspan x="149.767" y="29">expedite the process of</tspan><tspan x="383.093" y="29">platform creation</tspan></text><path d="M328.5 415.5C328.5 407.768 358.049 401.5 394.5 401.5 430.951 401.5 460.5 407.768 460.5 415.5 460.5 423.232 430.951 429.5 394.5 429.5 358.049 429.5 328.5 423.232 328.5 415.5Z" stroke="#2F528F" stroke-miterlimit="8" fill="none" fill-rule="evenodd"/><text font-family="Calibri,Calibri_MSFontService,sans-serif" font-weight="400" font-size="24" transform="translate(359.094 423)">sysroot</text></g></svg>